<svg width="62" height="20" viewBox="0 0 62 20" fill="none" xmlns="http://www.w3.org/2000/svg">
<path fill-rule="evenodd" clip-rule="evenodd" d="M15.4281 6.59605C14.1073 10.224 12.9246 12.9927 12.8002 12.7484C12.6755 12.5045 12.1358 9.97753 11.601 7.13318C11.0658 4.28882 10.407 1.60033 10.1371 1.15914C9.66596 0.388401 9.45513 0.357372 4.82332 0.375205L0 0.393751L2.10825 1.21656C3.26778 1.66916 4.47862 2.15386 4.79907 2.29367C5.1399 2.44204 5.62199 3.46351 5.95966 4.75141C6.2773 5.96334 7.29769 9.84378 8.22743 13.3747L9.91789 19.7946L12.5216 19.8973L15.1249 20L18.8807 10.6242C20.9465 5.46758 22.7385 0.967615 22.8632 0.624153C23.0667 0.0649119 22.8172 0 20.4602 0L17.8298 0L15.4281 6.59605ZM24.9546 1.15914C24.8446 1.79685 24.2069 5.76896 23.5379 9.98645C22.8688 14.2039 22.2332 18.176 22.1253 18.8138L21.9289 19.9729H24.398C26.67 19.9729 26.8812 19.9091 27.0488 19.1704C27.28 18.1507 30.0425 0.760753 30.0425 0.324916C30.0425 0.14623 28.9427 0 27.5987 0L25.1552 0L24.9546 1.15914ZM36.5869 0.523932C33.7151 1.56288 31.7959 4.56559 32.291 7.24481C32.565 8.7278 34.4649 10.6081 37.0134 11.9192C39.4586 13.1768 39.9007 14.582 38.1417 15.5054C36.7439 16.239 34.6322 16.1909 32.5215 15.3766L30.7765 14.7036L30.5555 16.3574C30.4343 17.2669 30.2646 18.272 30.1788 18.5905C29.967 19.3787 32.37 19.9729 35.7678 19.9729C40.0388 19.9729 42.5704 18.6522 43.8273 15.7682C45.2479 12.5084 44.0782 10.2365 39.7053 7.76339C37.2654 6.38348 36.8423 5.39482 38.2826 4.43684C39.1832 3.83801 41.7004 3.84906 43.6245 4.46109C44.4425 4.72145 44.5493 4.52885 44.9615 2.04829C45.1628 0.837078 45.0961 0.674085 44.2668 0.354162C42.9408 -0.157643 38.1793 -0.0520722 36.5869 0.523932ZM53.3576 0.239318C52.943 0.32563 52.365 0.668379 52.073 1.00078C51.6805 1.44732 46.1653 14.4158 44.1941 19.5271C44.0659 19.8598 44.6934 19.9729 46.666 19.9729H49.3094L49.8066 18.4571L50.3035 16.9413L53.5154 16.8389L56.7269 16.7366L56.9455 17.7306C57.4581 20.0653 57.3425 19.9729 59.7484 19.9729H62L61.7723 18.8138C61.6472 18.176 60.7421 13.7224 59.7607 8.91647L57.9768 0.178329L56.0442 0.13018C54.9813 0.103788 53.7722 0.15265 53.3576 0.239318ZM55.2912 9.54062L55.9532 12.8397H53.853C51.9925 12.8397 51.7806 12.7684 51.9999 12.2156C52.1355 11.8725 52.7367 10.2404 53.3355 8.58941C53.9342 6.93844 54.47 5.73472 54.5266 5.91447C54.5828 6.09423 54.9268 7.7263 55.2912 9.54062Z" fill="white"/>
</svg>
